<svg id="visual" viewBox="0 0 900 600" width="900" height="600" xmlns="http://www.w3.org/2000/svg" xmlns:xlink="http://www.w3.org/1999/xlink" version="1.1"><rect x="0" y="0" width="900" height="600" fill="#f5f5f5"></rect><defs><linearGradient id="grad1_0" x1="33.3%" y1="100%" x2="100%" y2="0%"><stop offset="20%" stop-color="#f5f5f5" stop-opacity="1"></stop><stop offset="80%" stop-color="#f5f5f5" stop-opacity="1"></stop></linearGradient></defs><defs><linearGradient id="grad2_0" x1="0%" y1="100%" x2="66.7%" y2="0%"><stop offset="20%" stop-color="#f5f5f5" stop-opacity="1"></stop><stop offset="80%" stop-color="#f5f5f5" stop-opacity="1"></stop></linearGradient></defs><g transform="translate(900, 600)"><path d="M-351.5 0C-342.8 -62.3 -334.1 -124.6 -304.4 -175.8C-274.8 -226.9 -224.2 -267 -170 -294.4C-115.8 -321.9 -57.9 -336.7 0 -351.5L0 0Z" fill="#044040"></path></g><g transform="translate(0, 0)"><path d="M351.5 0C305.8 40 260 80 236.4 136.5C212.9 193 211.5 265.9 175.8 304.4C140.1 343 70 347.3 0 351.5L0 0Z" fill="#044040"></path></g></svg>